<svg xmlns="http://www.w3.org/2000/svg" xmlns:xlink="http://www.w3.org/1999/xlink" width="1024" zoomAndPan="magnify" viewBox="0 0 768 767.999994" height="1024" preserveAspectRatio="xMidYMid meet" version="1.0"><defs><clipPath id="9cf7fdfbbb"><path d="M 2 49.777344 L 766 49.777344 L 766 718.027344 L 2 718.027344 Z M 2 49.777344 " clip-rule="nonzero"/></clipPath></defs><g clip-path="url(#9cf7fdfbbb)"><path fill="#747474" d="M 606.953125 156.828125 C 593.078125 142.457031 577.925781 129.289062 561.78125 117.535156 C 555.621094 113.003906 548.824219 108.472656 541.179688 103.65625 C 484.820312 68.398438 419.753906 49.777344 352.988281 49.777344 C 159.699219 49.777344 2.449219 204.265625 2.449219 394.15625 C 2.449219 534.273438 87.695312 659.378906 219.667969 712.691406 C 219.667969 712.691406 230.078125 716.871094 236.449219 718.214844 L 336.632812 544.679688 L 476.820312 667.097656 L 765.550781 156.828125 Z M 553.003906 363.570312 L 456.21875 534.625 L 373.449219 468.78125 L 413.949219 395.996094 L 431.152344 403.925781 C 415.222656 381.980469 397.804688 336.523438 397.664062 309.691406 L 218.535156 619.941406 C 136.761719 573.566406 85.640625 488.324219 85.640625 394.085938 C 85.570312 250.144531 205.507812 132.898438 352.988281 132.898438 C 404.179688 132.898438 453.953125 147.128906 497 174.105469 C 503.015625 177.859375 508.1875 181.328125 512.789062 184.726562 C 529.144531 196.621094 544.082031 210.425781 557.25 225.648438 L 569.710938 240.023438 L 670.675781 240.023438 L 584.792969 307.636719 L 553.074219 363.710938 L 553.074219 363.570312 Z M 553.003906 363.570312 " fill-opacity="1" fill-rule="nonzero"/></g></svg>